<svg xmlns="http://www.w3.org/2000/svg" viewBox="0 0 180.9 52.12"><defs><style>.cls-1{fill:#fff;}.cls-2{fill:#0094da;}.cls-3{fill:#d90e2a;}.cls-4{fill:#88b0c5;}</style></defs><g id="Camada_2" data-name="Camada 2"><g id="Camada_1-2" data-name="Camada 1"><path class="cls-1" d="M0,20.51a8.5,8.5,0,0,1,8.87-8.82c3.57,0,6.44,1.71,7.64,4.43l-4.39,2.51a3.36,3.36,0,0,0-3.23-2c-2.33,0-3.49,1.69-3.49,3.91s1.23,3.9,3.57,3.9a3.43,3.43,0,0,0,3.27-2l4.39,2.5c-1.2,2.73-4.12,4.44-7.69,4.44A8.56,8.56,0,0,1,0,20.51Z"/><path class="cls-1" d="M35.69,28.7v.24H29.91l-.78-2.17H22.72L22,28.94H16.17V28.7L23,12.07h5.83Zm-8.1-6.26-1.66-4.7-1.66,4.7Z"/><path class="cls-1" d="M34.92,24.85l4.54-2.49A2.26,2.26,0,0,0,42,24.41c1.59,0,2.36-.79,2.36-2.14V12.07h5.31V22.51c0,4.19-2.51,6.82-7.45,6.82C38.32,29.33,36,27.71,34.92,24.85Z"/><path class="cls-1" d="M68.91,28.7v.24H63.12l-.77-2.17H55.94l-.77,2.17H49.38V28.7l6.85-16.63h5.83Zm-8.1-6.26-1.66-4.7-1.67,4.7Z"/><path class="cls-1" d="M88.42,12.07V28.94h-5.3V20.7l-3.67,4.87h-.38L75.4,20.7v8.24H70.1V12.07h4.34l4.82,6.44,4.82-6.44Z"/><path class="cls-1" d="M109,28.7v.24h-5.78l-.77-2.17H96l-.77,2.17H89.43V28.7l6.85-16.63h5.83Zm-8.09-6.26-1.67-4.7-1.66,4.7Z"/><path class="cls-1" d="M126.35,28.7v.24h-5.54l-3.18-4.87h-2.36v4.87H110V12.07h9.16c3.64,0,6.27,2.41,6.27,6a5.76,5.76,0,0,1-2.82,5.14Zm-11.08-9h3.06c1.11,0,1.76-.61,1.76-1.55s-.65-1.54-1.76-1.54h-3.06Z"/><path class="cls-2" d="M13,36.37a4.7,4.7,0,0,1-5,4.87H4.74v3.63H.53V31.5H8A4.69,4.69,0,0,1,13,36.37Zm-4.2.06a1.25,1.25,0,0,0-1.41-1.3H4.74v2.56h2.6A1.25,1.25,0,0,0,8.75,36.43Z"/><path class="cls-2" d="M27.19,44.68v.19H22.8L20.28,41H18.4v3.86H14.2V31.5h7.26a4.65,4.65,0,0,1,5,4.75,4.54,4.54,0,0,1-2.24,4.07ZM18.4,37.57h2.43c.88,0,1.4-.48,1.4-1.22s-.52-1.22-1.4-1.22H18.4Z"/><path class="cls-2" d="M39.4,41.13v3.74H28.13V31.5H39.31v3.74h-7v1.28h4.4v3.29h-4.4v1.32Z"/><path class="cls-2" d="M45.17,35.32V37H50v3.82H45.17v4H41V31.5H52.43v3.82Z"/><path class="cls-2" d="M64.79,41.13v3.74H53.52V31.5H64.69v3.74h-7v1.28h4.39v3.29H57.72v1.32Z"/><path class="cls-2" d="M70.78,31.5V44.87h-4.2V31.5Z"/><path class="cls-2" d="M83.93,35.32h-4v9.55H75.71V35.32h-4V31.5H83.93Z"/><path class="cls-2" d="M84.78,39.58V31.5H89v8.08c0,1.07.78,1.7,2.12,1.7s2.08-.63,2.08-1.7V31.5h4.2v8.08c0,3.51-2.35,5.6-6.3,5.6S84.78,43.09,84.78,39.58Z"/><path class="cls-2" d="M111.88,44.68v.19h-4.4L105,41h-1.87v3.86H98.88V31.5h7.26a4.65,4.65,0,0,1,5,4.75,4.56,4.56,0,0,1-2.23,4.07Zm-8.79-7.11h2.42c.88,0,1.4-.48,1.4-1.22s-.52-1.22-1.4-1.22h-2.42Z"/><path class="cls-2" d="M127.78,44.68v.19h-4.59l-.61-1.72H117.5l-.61,1.72H112.3v-.19l5.43-13.18h4.62Zm-6.42-5L120,36l-1.32,3.72Z"/><polygon class="cls-3" points="143.93 38.83 143.93 38.83 137.07 38.83 139.7 35.34 137.07 31.84 143.93 31.84 143.93 31.84 143.93 35.61 143.93 38.83"/><polygon class="cls-3" points="174.03 38.83 174.03 38.83 180.9 38.83 178.26 35.34 180.9 31.84 174.03 31.84 174.03 31.84 174.03 35.61 174.03 38.83"/><rect class="cls-2" x="145.56" y="18.48" width="26.81" height="10.15"/><polygon class="cls-1" points="151.84 20.9 152.53 23.03 154.77 23.03 152.96 24.34 153.65 26.47 151.84 25.16 150.03 26.47 150.72 24.34 148.91 23.03 151.15 23.03 151.84 20.9"/><polygon class="cls-1" points="166.75 20.9 167.44 23.03 169.68 23.03 167.87 24.34 168.56 26.47 166.75 25.16 164.94 26.47 165.63 24.34 163.82 23.03 166.06 23.03 166.75 20.9"/><path class="cls-4" d="M172.37,30V47.05a3,3,0,0,1-3,3H161.6L159,52.12,156.33,50h-7.8a3,3,0,0,1-3-3V30Z"/><polygon class="cls-1" points="160.91 37.45 160.91 33.52 162.24 32.15 155.56 32.15 156.89 33.52 156.89 37.45 153.16 37.45 151.79 36.12 151.79 42.8 153.16 41.47 156.89 41.47 156.89 45.9 155.56 47.27 162.24 47.27 160.91 45.9 160.91 41.47 164.64 41.47 166.01 42.8 166.01 36.12 164.64 37.45 160.91 37.45"/><path class="cls-1" d="M149.06,32.34c0-.39-.26-.72-.37-.72s-.31.31-.36.68c-.27-.35-.69-.53-.77-.46s0,.57.26.92a1.8,1.8,0,0,0,.2.19,1.31,1.31,0,0,1,.72-.23,1.36,1.36,0,0,1,.69.21,1.45,1.45,0,0,0,.18-.17c.3-.35.35-.86.26-.92S149.33,32,149.06,32.34Z"/><path class="cls-1" d="M149.78,34.1a1,1,0,1,0-1,1A1,1,0,0,0,149.78,34.1Z"/><path class="cls-1" d="M149.06,45c0-.39-.26-.73-.37-.73s-.31.32-.36.69c-.27-.35-.69-.53-.77-.47s0,.57.26.92a.89.89,0,0,0,.2.19,1.4,1.4,0,0,1,.72-.23,1.36,1.36,0,0,1,.69.21,1,1,0,0,0,.18-.17c.3-.35.35-.85.26-.92S149.33,44.64,149.06,45Z"/><circle class="cls-1" cx="148.74" cy="46.78" r="1.03"/><path class="cls-1" d="M168.44,33a1.28,1.28,0,0,1,.72-.23,1.4,1.4,0,0,1,.69.21l.18-.17c.29-.35.35-.86.26-.92s-.54.12-.81.5c0-.39-.26-.72-.37-.72s-.31.31-.36.68c-.27-.35-.7-.53-.78-.46s0,.57.26.92Z"/><path class="cls-1" d="M169.16,33.07a1,1,0,1,0,1,1A1,1,0,0,0,169.16,33.07Z"/><path class="cls-1" d="M169.48,45c0-.39-.26-.73-.37-.73s-.31.32-.36.69c-.27-.35-.7-.53-.78-.47a1.06,1.06,0,0,0,.26.92,1.2,1.2,0,0,0,.21.19,1.37,1.37,0,0,1,.72-.23,1.4,1.4,0,0,1,.69.21,1.41,1.41,0,0,0,.18-.17c.29-.35.35-.85.26-.92S169.75,44.64,169.48,45Z"/><path class="cls-1" d="M169.16,45.75a1,1,0,1,0,1,1A1,1,0,0,0,169.16,45.75Z"/><polygon class="cls-4" points="164.17 39.14 159.35 39.14 159.35 34.06 158.45 34.06 158.45 39.14 153.63 39.14 153.63 40.04 158.45 40.04 158.45 45.37 159.35 45.37 159.35 40.04 164.17 40.04 164.17 39.14"/><path class="cls-4" d="M173.29,2.49c-.62-.22-1.25-.43-1.88-.62l-.14.45-.15.46-.64-.19-.64-.18.13-.47.12-.45c-.64-.18-1.28-.34-1.92-.49-.07.33-.15.66-.22,1h0l-.24,1.09-.08.34.69.17c-.18.78-.37,1.56-.56,2.33l-.65-.15-.21.93c-.4-.08-.79-.17-1.19-.24l.18-.94-.67-.12c.14-.79.27-1.58.41-2.37l.7.13.07-.35.2-1.1c.07-.33.13-.66.19-1L165.53.5c0,.16-.05.32-.08.47l-.07.48-.66-.1-.66-.08.06-.48h0l.06-.47-.26,0-.56-.07-.57,0-.21,0c0,.16,0,.31,0,.47l0,.48-.66-.05-.67,0,0-.48,0-.48L159.9,0c0,.34,0,.67,0,1h0l0,.76c0,.24,0,.47,0,.71l.72,0c0,.8-.06,1.59-.1,2.39l-.67,0,0,1h-1.59c0-.32,0-.64,0-1l-.68,0-.09-2.4.71,0V2.13h0l0-1.12c0-.34,0-.67,0-1l-1.32.05,0,.48,0,.48-.66,0-.66.05,0-.48,0-.47-.23,0-.56,0L154,.28l-.25,0,.06.47.06.48-.66.09-.66.1L152.51,1,152.43.5l-1.27.22c.06.33.12.66.19,1h0c.06.37.13.73.2,1.1h0l.07.34.7-.12c.13.79.27,1.58.4,2.37l-.66.11.18,1-1.2.25-.21-.94-.66.15-.57-2.33.7-.17-.07-.34c-.09-.36-.17-.73-.25-1.09s-.14-.66-.22-1c-.64.15-1.28.31-1.91.48l.12.46.13.47c-.22,0-.43.11-.64.18l-.65.19-.14-.46c0-.15-.09-.31-.14-.46-.63.2-1.26.4-1.89.63.11.32.23.63.34.95h0l.38,1.05.12.33.68-.23,1.08,3.18h0c.38,1.11.76,2.23,1.13,3.34l.84-.27-.62-2h0l-.19-.61c-.1-.33.18-.71.64-.84h0c.46-.13.9,0,1,.38.23.87.45,1.75.68,2.62h0v0a32.26,32.26,0,0,1,4-.78v0h0l-.15-1.18-.11-.87-.09-.64c0-.34.3-.66.77-.71h0a.75.75,0,0,1,.9.54l0,.64h0l.09,1.17.08.89h0v0a33,33,0,0,1,5.26,0c.05-.7.11-1.39.16-2.09l.06-.64c0-.34.42-.59.89-.54h0c.47,0,.82.37.77.71l-.08.64h0l-.27,2.07a32.26,32.26,0,0,1,4,.78L167.55,9c.1-.41.21-.83.32-1.24s.52-.51,1-.38h0c.46.13.74.51.64.84l-.19.61h0c-.21.67-.41,1.34-.62,2l.84.27c.37-1.11.75-2.23,1.13-3.34h0l1.08-3.18.68.23.38-1.05.12-.33h0Z"/><path class="cls-4" d="M167.77,16.38h0a27.35,27.35,0,0,0-17.56,0h0a.3.3,0,0,0-.17.27.29.29,0,0,0,.29.29h.12a26.84,26.84,0,0,1,17.17,0h.06a.29.29,0,0,0,.3-.29A.3.3,0,0,0,167.77,16.38Z"/><path class="cls-4" d="M149.77,15.22h0a.31.31,0,0,0-.18.27.3.3,0,0,0,.3.3H150a28,28,0,0,1,17.94,0H168a.3.3,0,0,0,.3-.3.31.31,0,0,0-.18-.27h0A28.44,28.44,0,0,0,149.77,15.22Z"/><path class="cls-4" d="M149.37,14.05h0a.3.3,0,0,0-.18.27.31.31,0,0,0,.31.31h.12a29.16,29.16,0,0,1,18.71,0h.1a.31.31,0,0,0,.31-.3.3.3,0,0,0-.19-.28h0A29.86,29.86,0,0,0,149.37,14.05Z"/><path class="cls-4" d="M149,12.89h0a.32.32,0,0,0-.19.29.31.31,0,0,0,.31.31h.12a30.39,30.39,0,0,1,19.49,0h.12a.31.31,0,0,0,.31-.31.32.32,0,0,0-.19-.29h0A31.08,31.08,0,0,0,149,12.89Z"/><path class="cls-4" d="M169.34,11.73h0a32.23,32.23,0,0,0-20.76,0,.32.32,0,0,0,.12.61h.12a31.58,31.58,0,0,1,20.26,0h.13a.31.31,0,0,0,.32-.31A.32.32,0,0,0,169.34,11.73Z"/></g></g></svg>